<?xml version="1.0" encoding="UTF-8" standalone="no"?>
<!-- Created with Inkscape (http://www.inkscape.org/) -->

<svg
   xmlns:dc="http://purl.org/dc/elements/1.1/"
   xmlns:cc="http://creativecommons.org/ns#"
   xmlns:rdf="http://www.w3.org/1999/02/22-rdf-syntax-ns#"
   xmlns:svg="http://www.w3.org/2000/svg"
   xmlns="http://www.w3.org/2000/svg"
   xmlns:sodipodi="http://sodipodi.sourceforge.net/DTD/sodipodi-0.dtd"
   xmlns:inkscape="http://www.inkscape.org/namespaces/inkscape"
   width="100mm"
   height="100mm"
   viewBox="0 0 99.999996 100"
   version="1.1"
   id="svg1055"
   sodipodi:docname="drizzle_light.svg"
   inkscape:version="0.92.4 (5da689c313, 2019-01-14)">
  <defs
     id="defs1049" />
  <sodipodi:namedview
     id="base"
     pagecolor="#ffffff"
     bordercolor="#666666"
     borderopacity="1.0"
     inkscape:pageopacity="0.0"
     inkscape:pageshadow="2"
     inkscape:zoom="0.7"
     inkscape:cx="-377.75254"
     inkscape:cy="62.218258"
     inkscape:document-units="mm"
     inkscape:current-layer="layer1"
     showgrid="false"
     units="mm"
     inkscape:window-width="1920"
     inkscape:window-height="1017"
     inkscape:window-x="-8"
     inkscape:window-y="-8"
     inkscape:window-maximized="1" />
  <metadata
     id="metadata1052">
    <rdf:RDF>
      <cc:Work
         rdf:about="">
        <dc:format>image/svg+xml</dc:format>
        <dc:type
           rdf:resource="http://purl.org/dc/dcmitype/StillImage" />
        <dc:title></dc:title>
      </cc:Work>
    </rdf:RDF>
  </metadata>
  <g
     inkscape:label="Layer 1"
     inkscape:groupmode="layer"
     id="layer1"
     transform="translate(0,-196.99997)">
    <g
       id="g11022"
       transform="translate(-0.2467867,11.856193)">
      <g
         style="fill:#ececec;stroke:#808080"
         transform="matrix(1.3129029,0,0,1.3129029,-4.6347827,149.99317)"
         id="g4733-8-5-2">
        <g
           style="fill:#ececec;stroke:#808080"
           transform="rotate(6.163,41.881581,62.243323)"
           id="g4719-5-1-7">
          <g
             style="fill:#ececec;stroke:#808080"
             id="g4706-3-6-9">
            <g
               style="fill:#ececec;stroke:#808080"
               id="g4694-8-9-1">
              <g
                 style="fill:#ececec;stroke:#808080"
                 id="g4683-5-2-6">
                <g
                   style="fill:#ececec;stroke:#808080"
                   id="g4673-9-8-6">
                  <g
                     style="fill:#ececec;stroke:#808080"
                     id="g4664-4-4-2">
                    <path
                       style="fill:#ececec;stroke:#808080;stroke-width:0.26458332px;stroke-linecap:butt;stroke-linejoin:miter;stroke-opacity:1"
                       d="m 22.417314,54.34988 c 0,0 -3.677334,-1.605947 -8.689976,0.486507 -8.0435511,3.357662 -10.2348261,8.972566 -8.0953172,16.334168 3.9392107,13.553999 17.9271152,11.163908 26.1969032,3.88347 0,0 -0.971301,1.65776 0.67174,3.440928 3.685579,3.999902 9.720339,2.96091 12.837998,1.856125 5.360896,-1.899707 8.436688,-3.983533 11.349044,-4.304868 0,0 2.115732,1.013266 3.159483,1.382789 6.093729,2.157385 13.47169,-2.567666 14.806193,-6.374527 C 81.377538,64.422166 79.301798,51.781797 74.095764,48.84584 69.783075,47.058825 60.370067,47.939672 56.969501,51.597512 50.513364,38.805486 34.286338,42.736718 25.952844,48.93216 c -5.419443,4.029023 -3.53553,5.41772 -3.53553,5.41772 z"
                       id="path3833-4-4-9"
                       inkscape:connector-curvature="0"
                       sodipodi:nodetypes="csscsscscccsc" />
                    <path
                       style="fill:#ececec;stroke:#808080;stroke-width:0.26458332px;stroke-linecap:butt;stroke-linejoin:miter;stroke-opacity:1"
                       d="m 31.828924,75.054025 c 0,0 6.12669,-4.595019 4.138873,-8.991602 -3.7858,-6.431903 -15.446314,-5.362182 -15.738835,1.496708 -0.199509,4.67799 6.480801,3.455626 6.290858,0.257249 -0.116932,-1.028988 -0.491109,-1.496711 -1.637027,-1.473324"
                       id="path4640-1-2-2"
                       inkscape:connector-curvature="0"
                       sodipodi:nodetypes="ccscc" />
                    <path
                       style="fill:#ececec;stroke:#808080;stroke-width:0.26458332px;stroke-linecap:butt;stroke-linejoin:miter;stroke-opacity:1"
                       d="m 56.687706,76.04621 c 10.503283,-3.389732 2.427065,-19.518583 -4.101769,-14.161577 -2.82647,2.831566 1.031636,7.101434 3.10791,4.305882 0.640823,-0.911116 0.648062,-2.199192 -0.263639,-2.420725"
                       id="path4644-2-3-2"
                       inkscape:connector-curvature="0"
                       sodipodi:nodetypes="cccc" />
                    <path
                       style="fill:#ececec;stroke:#808080;stroke-width:0.26458332px;stroke-linecap:butt;stroke-linejoin:miter;stroke-opacity:1"
                       d="m 56.969501,51.597512 c 0,0 0.794126,4.525827 -2.479926,5.414496 -3.274052,0.888672 -5.472343,-0.420949 -6.361015,-1.824114 -0.888672,-1.403164 0,-2.619242 1.028988,-2.572469"
                       id="path4646-1-0-8"
                       inkscape:connector-curvature="0"
                       sodipodi:nodetypes="cssc" />
                    <path
                       style="fill:#ececec;stroke:#808080;stroke-width:0.26458332px;stroke-linecap:butt;stroke-linejoin:miter;stroke-opacity:1"
                       d="m 22.417314,54.34988 c 0,0 0.688136,1.071874 1.904213,0.557381"
                       id="path4648-3-4-3"
                       inkscape:connector-curvature="0" />
                    <path
                       style="fill:#ececec;stroke:#808080;stroke-width:0.26458332px;stroke-linecap:butt;stroke-linejoin:miter;stroke-opacity:1"
                       d="m 74.65338,71.054472 c 0,0 -2.062978,1.672985 -3.653232,2.140707"
                       id="path4650-1-6-8"
                       inkscape:connector-curvature="0" />
                  </g>
                </g>
              </g>
            </g>
          </g>
        </g>
      </g>
      <path
         sodipodi:nodetypes="ccc"
         inkscape:connector-curvature="0"
         id="path5188-8-2"
         d="m 14.356485,244.29116 c -20.6896918,22.93954 23.509758,27.92619 1.06e-4,0 z"
         style="fill:#afdde9;stroke:#37abc8;stroke-width:0.65075397px;stroke-linecap:butt;stroke-linejoin:miter;stroke-opacity:1" />
    </g>
  </g>
</svg>
