<?xml version="1.0" encoding="UTF-8" standalone="no"?>
<!-- Created with Inkscape (http://www.inkscape.org/) -->

<svg
   xmlns:dc="http://purl.org/dc/elements/1.1/"
   xmlns:cc="http://creativecommons.org/ns#"
   xmlns:rdf="http://www.w3.org/1999/02/22-rdf-syntax-ns#"
   xmlns:svg="http://www.w3.org/2000/svg"
   xmlns="http://www.w3.org/2000/svg"
   xmlns:sodipodi="http://sodipodi.sourceforge.net/DTD/sodipodi-0.dtd"
   xmlns:inkscape="http://www.inkscape.org/namespaces/inkscape"
   width="100mm"
   height="100mm"
   viewBox="0 0 99.999996 100"
   version="1.1"
   id="svg1055"
   sodipodi:docname="freeing_rain_light.svg"
   inkscape:version="0.92.4 (5da689c313, 2019-01-14)">
  <defs
     id="defs1049" />
  <sodipodi:namedview
     id="base"
     pagecolor="#ffffff"
     bordercolor="#666666"
     borderopacity="1.0"
     inkscape:pageopacity="0.0"
     inkscape:pageshadow="2"
     inkscape:zoom="0.98994949"
     inkscape:cx="-138.26303"
     inkscape:cy="52.187896"
     inkscape:document-units="mm"
     inkscape:current-layer="layer1"
     showgrid="false"
     units="mm"
     inkscape:window-width="1920"
     inkscape:window-height="1017"
     inkscape:window-x="-8"
     inkscape:window-y="-8"
     inkscape:window-maximized="1" />
  <metadata
     id="metadata1052">
    <rdf:RDF>
      <cc:Work
         rdf:about="">
        <dc:format>image/svg+xml</dc:format>
        <dc:type
           rdf:resource="http://purl.org/dc/dcmitype/StillImage" />
        <dc:title></dc:title>
      </cc:Work>
    </rdf:RDF>
  </metadata>
  <g
     inkscape:label="Layer 1"
     inkscape:groupmode="layer"
     id="layer1"
     transform="translate(0,-196.99997)">
    <path
       style="fill:#37abc8;stroke:#216778;stroke-width:0.3473722px;stroke-linecap:butt;stroke-linejoin:miter;stroke-opacity:1"
       d="m 59.023589,262.21464 c -10.368926,13.04252 11.782237,15.87773 5.3e-5,0 z"
       id="path5188-8"
       inkscape:connector-curvature="0"
       sodipodi:nodetypes="ccc" />
    <path
       style="fill:#37abc8;stroke:#216778;stroke-width:0.3473722px;stroke-linecap:butt;stroke-linejoin:miter;stroke-opacity:1"
       d="m 34.714261,265.3223 c -10.83586,9.46266 9.337431,15.30573 5.3e-5,0 z"
       id="path5188"
       inkscape:connector-curvature="0"
       sodipodi:nodetypes="ccc" />
    <g
       id="g11022"
       transform="translate(-0.2467867,5.3836896)">
      <g
         style="fill:#ececec;stroke:#808080"
         transform="matrix(1.3129029,0,0,1.3129029,-4.6347827,149.99317)"
         id="g4733-8-5-2">
        <g
           style="fill:#ececec;stroke:#808080"
           transform="rotate(6.163,41.881581,62.243323)"
           id="g4719-5-1-7">
          <g
             style="fill:#ececec;stroke:#808080"
             id="g4706-3-6-9">
            <g
               style="fill:#ececec;stroke:#808080"
               id="g4694-8-9-1">
              <g
                 style="fill:#ececec;stroke:#808080"
                 id="g4683-5-2-6">
                <g
                   style="fill:#ececec;stroke:#808080"
                   id="g4673-9-8-6">
                  <g
                     style="fill:#ececec;stroke:#808080"
                     id="g4664-4-4-2">
                    <path
                       style="fill:#ececec;stroke:#808080;stroke-width:0.26458332px;stroke-linecap:butt;stroke-linejoin:miter;stroke-opacity:1"
                       d="m 22.417314,54.34988 c 0,0 -3.677334,-1.605947 -8.689976,0.486507 -8.0435511,3.357662 -10.2348261,8.972566 -8.0953172,16.334168 3.9392107,13.553999 17.9271152,11.163908 26.1969032,3.88347 0,0 -0.971301,1.65776 0.67174,3.440928 3.685579,3.999902 9.720339,2.96091 12.837998,1.856125 5.360896,-1.899707 8.436688,-3.983533 11.349044,-4.304868 0,0 2.115732,1.013266 3.159483,1.382789 6.093729,2.157385 13.47169,-2.567666 14.806193,-6.374527 C 81.377538,64.422166 79.301798,51.781797 74.095764,48.84584 69.783075,47.058825 60.370067,47.939672 56.969501,51.597512 50.513364,38.805486 34.286338,42.736718 25.952844,48.93216 c -5.419443,4.029023 -3.53553,5.41772 -3.53553,5.41772 z"
                       id="path3833-4-4-9"
                       inkscape:connector-curvature="0"
                       sodipodi:nodetypes="csscsscscccsc" />
                    <path
                       style="fill:#ececec;stroke:#808080;stroke-width:0.26458332px;stroke-linecap:butt;stroke-linejoin:miter;stroke-opacity:1"
                       d="m 31.828924,75.054025 c 0,0 6.12669,-4.595019 4.138873,-8.991602 -3.7858,-6.431903 -15.446314,-5.362182 -15.738835,1.496708 -0.199509,4.67799 6.480801,3.455626 6.290858,0.257249 -0.116932,-1.028988 -0.491109,-1.496711 -1.637027,-1.473324"
                       id="path4640-1-2-2"
                       inkscape:connector-curvature="0"
                       sodipodi:nodetypes="ccscc" />
                    <path
                       style="fill:#ececec;stroke:#808080;stroke-width:0.26458332px;stroke-linecap:butt;stroke-linejoin:miter;stroke-opacity:1"
                       d="m 56.687706,76.04621 c 10.503283,-3.389732 2.427065,-19.518583 -4.101769,-14.161577 -2.82647,2.831566 1.031636,7.101434 3.10791,4.305882 0.640823,-0.911116 0.648062,-2.199192 -0.263639,-2.420725"
                       id="path4644-2-3-2"
                       inkscape:connector-curvature="0"
                       sodipodi:nodetypes="cccc" />
                    <path
                       style="fill:#ececec;stroke:#808080;stroke-width:0.26458332px;stroke-linecap:butt;stroke-linejoin:miter;stroke-opacity:1"
                       d="m 56.969501,51.597512 c 0,0 0.794126,4.525827 -2.479926,5.414496 -3.274052,0.888672 -5.472343,-0.420949 -6.361015,-1.824114 -0.888672,-1.403164 0,-2.619242 1.028988,-2.572469"
                       id="path4646-1-0-8"
                       inkscape:connector-curvature="0"
                       sodipodi:nodetypes="cssc" />
                    <path
                       style="fill:#ececec;stroke:#808080;stroke-width:0.26458332px;stroke-linecap:butt;stroke-linejoin:miter;stroke-opacity:1"
                       d="m 22.417314,54.34988 c 0,0 0.688136,1.071874 1.904213,0.557381"
                       id="path4648-3-4-3"
                       inkscape:connector-curvature="0" />
                    <path
                       style="fill:#ececec;stroke:#808080;stroke-width:0.26458332px;stroke-linecap:butt;stroke-linejoin:miter;stroke-opacity:1"
                       d="m 74.65338,71.054472 c 0,0 -2.062978,1.672985 -3.653232,2.140707"
                       id="path4650-1-6-8"
                       inkscape:connector-curvature="0" />
                  </g>
                </g>
              </g>
            </g>
          </g>
        </g>
      </g>
      <path
         sodipodi:nodetypes="ccc"
         inkscape:connector-curvature="0"
         id="path5188-8-2"
         d="m 14.356485,244.29116 c -20.6896918,22.93954 23.509758,27.92619 1.06e-4,0 z"
         style="fill:#afdde9;stroke:#37abc8;stroke-width:0.65075397px;stroke-linecap:butt;stroke-linejoin:miter;stroke-opacity:1" />
    </g>
    <path
       style="fill:#87cdde;stroke:#37abc8;stroke-width:0.3473722px;stroke-linecap:butt;stroke-linejoin:miter;stroke-opacity:1"
       d="m 68.219905,271.02095 c 10.36892,13.04252 -11.78224,15.87774 -6e-5,0 z"
       id="path5188-8-1"
       inkscape:connector-curvature="0"
       sodipodi:nodetypes="ccc" />
    <path
       style="fill:#37abc8;stroke:#216778;stroke-width:0.56612474px;stroke-linecap:butt;stroke-linejoin:miter;stroke-opacity:1"
       d="m 81.224729,255.49618 c 17.659566,15.42161 -15.21754,24.94428 -9e-5,0 z"
       id="path5188-2-7"
       inkscape:connector-curvature="0"
       sodipodi:nodetypes="ccc" />
    <path
       style="fill:#87cdde;stroke:#37abc8;stroke-width:0.3473722px;stroke-linecap:butt;stroke-linejoin:miter;stroke-opacity:1"
       d="m 44.032177,256.44291 c 10.835861,9.46266 -9.337431,15.30573 -5.2e-5,0 z"
       id="path5188-2"
       inkscape:connector-curvature="0"
       sodipodi:nodetypes="ccc" />
    <path
       style="fill:#87cdde;stroke:#37abc8;stroke-width:0.3473722px;stroke-linecap:butt;stroke-linejoin:miter;stroke-opacity:1"
       d="m 24.694897,271.92236 c -10.83586,9.46266 9.337432,15.30573 5.2e-5,0 z"
       id="path5188-2-2"
       inkscape:connector-curvature="0"
       sodipodi:nodetypes="ccc" />
    <g
       transform="matrix(1.0188082,0,0,1.0717611,60.775632,-14.162296)"
       id="g9841-9-8-2">
      <g
         style="stroke:#216778;stroke-width:1.87941706;stroke-miterlimit:4;stroke-dasharray:none"
         transform="matrix(1.0071951,0,0,0.91072044,-119.34915,11.069294)"
         id="g5857-5-8-1-9-1">
        <g
           id="g5427-5-7-2-8-5"
           style="stroke:#216778;stroke-width:1.87941706;stroke-miterlimit:4;stroke-dasharray:none">
          <path
             inkscape:connector-curvature="0"
             id="path5397-94-5-7-1-9"
             d="m 137.2526,209.95208 0.0661,16.01377 z"
             style="fill:none;stroke:#216778;stroke-width:1.87941706;stroke-linecap:butt;stroke-linejoin:miter;stroke-miterlimit:4;stroke-dasharray:none;stroke-opacity:1"
             sodipodi:nodetypes="ccc" />
          <path
             sodipodi:nodetypes="cac"
             inkscape:connector-curvature="0"
             id="path5423-7-3-1-0-8"
             d="m 132.14283,211.62226 c 0,0 2.53849,6.0037 5.15938,5.93659 2.54743,-0.0652 4.71289,-6.01927 4.71289,-6.01927"
             style="fill:none;stroke:#216778;stroke-width:1.87941706;stroke-linecap:butt;stroke-linejoin:miter;stroke-miterlimit:4;stroke-dasharray:none;stroke-opacity:1" />
        </g>
        <path
           style="fill:none;stroke:#216778;stroke-width:1.87941706;stroke-linecap:butt;stroke-linejoin:miter;stroke-miterlimit:4;stroke-dasharray:none;stroke-opacity:1"
           d="m 124.22397,219.66152 10.69054,7.67995 z"
           id="path5397-3-8-7-8-6"
           inkscape:connector-curvature="0" />
        <path
           style="fill:none;stroke:#216778;stroke-width:1.87941706;stroke-linecap:butt;stroke-linejoin:miter;stroke-miterlimit:4;stroke-dasharray:none;stroke-opacity:1"
           d="m 122.57344,224.77767 c 0,0 6.34968,1.47307 7.83518,-0.68722 1.44387,-2.09974 -2.102,-7.35014 -2.102,-7.35014"
           id="path5423-4-5-9-2-0-9"
           inkscape:connector-curvature="0"
           sodipodi:nodetypes="cac" />
        <g
           transform="matrix(-1,0,0,1,300.71677,-7.8579284)"
           id="g5427-0-5-1-3-7-7-5"
           style="stroke:#216778;stroke-width:1.87941706;stroke-miterlimit:4;stroke-dasharray:none">
          <path
             inkscape:connector-curvature="0"
             id="path5397-3-4-2-4-2-7"
             d="m 151.50301,227.43365 10.03573,7.16545 z"
             style="fill:none;stroke:#216778;stroke-width:1.87941706;stroke-linecap:butt;stroke-linejoin:miter;stroke-miterlimit:4;stroke-dasharray:none;stroke-opacity:1"
             sodipodi:nodetypes="ccc" />
          <path
             sodipodi:nodetypes="cac"
             inkscape:connector-curvature="0"
             id="path5423-4-7-3-8-1-8-7"
             d="m 149.85248,232.5498 c 0,0 6.34968,1.47307 7.83518,-0.68722 1.44387,-2.09974 -2.102,-7.35014 -2.102,-7.35014"
             style="fill:none;stroke:#216778;stroke-width:1.87941706;stroke-linecap:butt;stroke-linejoin:miter;stroke-miterlimit:4;stroke-dasharray:none;stroke-opacity:1" />
        </g>
        <g
           transform="rotate(-180,150.38445,232.27401)"
           id="g5427-0-5-6-6-4-9-7-7"
           style="stroke:#216778;stroke-width:1.87941706;stroke-miterlimit:4;stroke-dasharray:none">
          <path
             inkscape:connector-curvature="0"
             id="path5397-3-4-3-3-9-8-8-7"
             d="m 151.50301,227.43365 10.0825,7.11868 z"
             style="fill:none;stroke:#216778;stroke-width:1.87941706;stroke-linecap:butt;stroke-linejoin:miter;stroke-miterlimit:4;stroke-dasharray:none;stroke-opacity:1"
             sodipodi:nodetypes="ccc" />
          <path
             sodipodi:nodetypes="cac"
             inkscape:connector-curvature="0"
             id="path5423-4-7-6-0-8-5-9-0"
             d="m 149.85248,232.5498 c 0,0 6.34968,1.47307 7.83518,-0.68722 1.44387,-2.09974 -2.102,-7.35014 -2.102,-7.35014"
             style="fill:none;stroke:#216778;stroke-width:1.87941706;stroke-linecap:butt;stroke-linejoin:miter;stroke-miterlimit:4;stroke-dasharray:none;stroke-opacity:1" />
        </g>
        <g
           transform="matrix(1,0,0,-1,-26.939152,464.73762)"
           id="g5427-0-5-6-4-1-5-8-8-6"
           style="stroke:#216778;stroke-width:1.87941706;stroke-miterlimit:4;stroke-dasharray:none">
          <path
             inkscape:connector-curvature="0"
             id="path5397-3-4-3-4-9-0-4-8-2"
             d="m 151.50301,227.43365 10.69054,7.67995 z"
             style="fill:none;stroke:#216778;stroke-width:1.87941706;stroke-linecap:butt;stroke-linejoin:miter;stroke-miterlimit:4;stroke-dasharray:none;stroke-opacity:1" />
          <path
             sodipodi:nodetypes="cac"
             inkscape:connector-curvature="0"
             id="path5423-4-7-6-1-4-0-0-8-6"
             d="m 149.85248,232.5498 c 0,0 6.34968,1.47307 7.83518,-0.68722 1.44387,-2.09974 -2.102,-7.35014 -2.102,-7.35014"
             style="fill:none;stroke:#216778;stroke-width:1.87941706;stroke-linecap:butt;stroke-linejoin:miter;stroke-miterlimit:4;stroke-dasharray:none;stroke-opacity:1" />
        </g>
        <g
           transform="matrix(1,0,0,-1,-0.05618449,456.70651)"
           id="g5427-4-1-1-9-0-3"
           style="stroke:#216778;stroke-width:1.87941706;stroke-miterlimit:4;stroke-dasharray:none">
          <path
             inkscape:connector-curvature="0"
             id="path5397-9-0-8-2-4"
             d="m 137.2526,209.95208 0.0661,15.78226 z"
             style="fill:none;stroke:#216778;stroke-width:1.87941706;stroke-linecap:butt;stroke-linejoin:miter;stroke-miterlimit:4;stroke-dasharray:none;stroke-opacity:1"
             sodipodi:nodetypes="ccc" />
          <path
             sodipodi:nodetypes="cac"
             inkscape:connector-curvature="0"
             id="path5423-44-3-7-4-5-3"
             d="m 132.14283,211.62226 c 0,0 2.53849,6.0037 5.15938,5.93659 2.54743,-0.0652 4.71289,-6.01927 4.71289,-6.01927"
             style="fill:none;stroke:#216778;stroke-width:1.87941706;stroke-linecap:butt;stroke-linejoin:miter;stroke-miterlimit:4;stroke-dasharray:none;stroke-opacity:1" />
        </g>
        <path
           style="fill:#808080;stroke:#216778;stroke-width:1.04412055;stroke-linecap:butt;stroke-linejoin:miter;stroke-miterlimit:4;stroke-dasharray:none;stroke-opacity:1"
           d="M 131.63021,228.67135 H 127.7276 Z"
           id="path5602-19-9-0-8-5"
           inkscape:connector-curvature="0" />
        <path
           style="fill:#808080;stroke:#216778;stroke-width:1.04412055;stroke-linecap:butt;stroke-linejoin:miter;stroke-miterlimit:4;stroke-dasharray:none;stroke-opacity:1"
           d="m 146.5461,228.47291 h -3.90261 z"
           id="path5602-1-6-8-1-7-1"
           inkscape:connector-curvature="0" />
        <path
           style="fill:#808080;stroke:#216778;stroke-width:1.04412055;stroke-linecap:butt;stroke-linejoin:miter;stroke-miterlimit:4;stroke-dasharray:none;stroke-opacity:1"
           d="m 141.54846,220.28278 -2.10941,3.2834 z"
           id="path5602-2-2-1-4-0-9"
           inkscape:connector-curvature="0" />
        <path
           style="fill:#808080;stroke:#216778;stroke-width:1.04412055;stroke-linecap:butt;stroke-linejoin:miter;stroke-miterlimit:4;stroke-dasharray:none;stroke-opacity:1"
           d="m 132.62602,220.41507 2.10941,3.2834 z"
           id="path5602-2-3-0-6-6-9-5"
           inkscape:connector-curvature="0" />
        <path
           style="fill:#808080;stroke:#216778;stroke-width:1.04412055;stroke-linecap:butt;stroke-linejoin:miter;stroke-miterlimit:4;stroke-dasharray:none;stroke-opacity:1"
           d="m 134.64189,233.36028 -2.10941,3.2834 z"
           id="path5602-2-6-8-7-6-1-6"
           inkscape:connector-curvature="0" />
        <path
           style="fill:#808080;stroke:#216778;stroke-width:1.04412055;stroke-linecap:butt;stroke-linejoin:miter;stroke-miterlimit:4;stroke-dasharray:none;stroke-opacity:1"
           d="m 139.45039,233.45383 2.10941,3.2834 z"
           id="path5602-2-3-6-0-5-8-4"
           inkscape:connector-curvature="0" />
        <path
           style="fill:#afdde9;stroke:#216778;stroke-width:1.87941706;stroke-linecap:butt;stroke-linejoin:miter;stroke-miterlimit:4;stroke-dasharray:none;stroke-opacity:1"
           d="m 121.87456,220.22065 c 0.43009,0.99116 2.57671,0.90173 3.24099,0.0496 0.59336,-0.76115 0.18866,-2.56965 -0.74937,-2.79666 -1.20155,-0.29078 -2.98372,1.61299 -2.49162,2.74706 z"
           id="path5751-99-0-5-7-1"
           inkscape:connector-curvature="0"
           sodipodi:nodetypes="sass" />
        <path
           style="fill:#afdde9;stroke:#216778;stroke-width:1.87941706;stroke-linecap:butt;stroke-linejoin:miter;stroke-miterlimit:4;stroke-dasharray:none;stroke-opacity:1"
           d="m 152.31627,219.47458 c -0.43009,0.99116 -2.57671,0.90173 -3.24099,0.0496 -0.59336,-0.76115 -0.18866,-2.56965 0.74937,-2.79666 1.20155,-0.29078 2.98372,1.61299 2.49162,2.74706 z"
           id="path5751-9-59-0-6-3-3"
           inkscape:connector-curvature="0"
           sodipodi:nodetypes="sass" />
        <path
           style="fill:#afdde9;stroke:#216778;stroke-width:1.87941706;stroke-linecap:butt;stroke-linejoin:miter;stroke-miterlimit:4;stroke-dasharray:none;stroke-opacity:1"
           d="m 152.37921,237.06452 c -0.43009,-0.99116 -2.57671,-0.90173 -3.24099,-0.0496 -0.59336,0.76115 -0.18866,2.56965 0.74937,2.79666 1.20155,0.29078 2.98372,-1.61299 2.49162,-2.74706 z"
           id="path5751-9-5-1-3-3-4"
           inkscape:connector-curvature="0"
           sodipodi:nodetypes="sass" />
        <path
           style="fill:#afdde9;stroke:#216778;stroke-width:1.87941706;stroke-linecap:butt;stroke-linejoin:miter;stroke-miterlimit:4;stroke-dasharray:none;stroke-opacity:1"
           d="m 121.31251,237.23147 c 0.43009,-0.99116 2.57671,-0.90173 3.24099,-0.0496 0.59336,0.76115 0.18866,2.56965 -0.74937,2.79666 -1.20155,0.29078 -2.98372,-1.61299 -2.49162,-2.74706 z"
           id="path5751-9-5-0-5-3-9-3-0"
           inkscape:connector-curvature="0"
           sodipodi:nodetypes="sass" />
        <path
           style="fill:#afdde9;stroke:#216778;stroke-width:1.87941706;stroke-linecap:butt;stroke-linejoin:miter;stroke-miterlimit:4;stroke-dasharray:none;stroke-opacity:1"
           d="m 139.29924,248.9328 c 0.20825,-1.06563 -1.18026,-2.46161 -2.25275,-2.33058 -0.95794,0.11734 -1.95324,1.68033 -1.45187,2.50499 0.64225,1.05631 3.24874,0.97471 3.70462,-0.17439 z"
           id="path5751-9-5-3-6-7-1-8-6"
           inkscape:connector-curvature="0"
           sodipodi:nodetypes="cassc" />
        <path
           style="fill:#afdde9;stroke:#216778;stroke-width:1.87941706;stroke-linecap:butt;stroke-linejoin:miter;stroke-miterlimit:4;stroke-dasharray:none;stroke-opacity:1"
           d="m 139.16031,207.6252 c 0.30428,1.04228 -0.95156,2.55873 -2.03152,2.52575 -0.96464,-0.0298 -2.09793,-1.49577 -1.67362,-2.3626 0.54355,-1.11033 3.14666,-1.26606 3.70514,-0.16317 z"
           id="path5751-9-5-3-0-3-9-7-4-4"
           inkscape:connector-curvature="0"
           sodipodi:nodetypes="cassc" />
      </g>
      <g
         style="stroke:#ffffff;stroke-width:1.64166331;stroke-miterlimit:4;stroke-dasharray:none"
         transform="matrix(1.0071951,0,0,0.91072044,-119.34915,11.069294)"
         id="g5857-5-7-5-2">
        <g
           id="g5427-5-1-1-4"
           style="stroke:#ffffff;stroke-width:1.64166331;stroke-miterlimit:4;stroke-dasharray:none">
          <path
             inkscape:connector-curvature="0"
             id="path5397-94-1-8-6"
             d="m 137.2526,209.95208 0.0661,16.01377 z"
             style="fill:none;stroke:#ffffff;stroke-width:1.64166331;stroke-linecap:butt;stroke-linejoin:miter;stroke-miterlimit:4;stroke-dasharray:none;stroke-opacity:1"
             sodipodi:nodetypes="ccc" />
          <path
             sodipodi:nodetypes="cac"
             inkscape:connector-curvature="0"
             id="path5423-7-4-2-7"
             d="m 132.14283,211.62226 c 0,0 2.53849,6.0037 5.15938,5.93659 2.54743,-0.0652 4.71289,-6.01927 4.71289,-6.01927"
             style="fill:none;stroke:#ffffff;stroke-width:1.64166331;stroke-linecap:butt;stroke-linejoin:miter;stroke-miterlimit:4;stroke-dasharray:none;stroke-opacity:1" />
        </g>
        <path
           style="fill:none;stroke:#ffffff;stroke-width:1.64166331;stroke-linecap:butt;stroke-linejoin:miter;stroke-miterlimit:4;stroke-dasharray:none;stroke-opacity:1"
           d="m 124.22397,219.66152 10.69054,7.67995 z"
           id="path5397-3-8-6-8-4"
           inkscape:connector-curvature="0" />
        <path
           style="fill:none;stroke:#ffffff;stroke-width:1.64166331;stroke-linecap:butt;stroke-linejoin:miter;stroke-miterlimit:4;stroke-dasharray:none;stroke-opacity:1"
           d="m 122.57344,224.77767 c 0,0 6.34968,1.47307 7.83518,-0.68722 1.44387,-2.09974 -2.102,-7.35014 -2.102,-7.35014"
           id="path5423-4-5-57-8-8"
           inkscape:connector-curvature="0"
           sodipodi:nodetypes="cac" />
        <g
           transform="matrix(-1,0,0,1,300.71677,-7.8579284)"
           id="g5427-0-5-1-9-9-4"
           style="stroke:#ffffff;stroke-width:1.64166331;stroke-miterlimit:4;stroke-dasharray:none">
          <path
             inkscape:connector-curvature="0"
             id="path5397-3-4-2-14-7-2"
             d="m 151.50301,227.43365 10.03573,7.16545 z"
             style="fill:none;stroke:#ffffff;stroke-width:1.64166331;stroke-linecap:butt;stroke-linejoin:miter;stroke-miterlimit:4;stroke-dasharray:none;stroke-opacity:1"
             sodipodi:nodetypes="ccc" />
          <path
             sodipodi:nodetypes="cac"
             inkscape:connector-curvature="0"
             id="path5423-4-7-3-2-4-4"
             d="m 149.85248,232.5498 c 0,0 6.34968,1.47307 7.83518,-0.68722 1.44387,-2.09974 -2.102,-7.35014 -2.102,-7.35014"
             style="fill:none;stroke:#ffffff;stroke-width:1.64166331;stroke-linecap:butt;stroke-linejoin:miter;stroke-miterlimit:4;stroke-dasharray:none;stroke-opacity:1" />
        </g>
        <g
           transform="rotate(-180,150.38445,232.27401)"
           id="g5427-0-5-6-6-5-1-3"
           style="stroke:#ffffff;stroke-width:1.64166331;stroke-miterlimit:4;stroke-dasharray:none">
          <path
             inkscape:connector-curvature="0"
             id="path5397-3-4-3-3-2-1-6"
             d="m 151.50301,227.43365 10.0825,7.11868 z"
             style="fill:none;stroke:#ffffff;stroke-width:1.64166331;stroke-linecap:butt;stroke-linejoin:miter;stroke-miterlimit:4;stroke-dasharray:none;stroke-opacity:1"
             sodipodi:nodetypes="ccc" />
          <path
             sodipodi:nodetypes="cac"
             inkscape:connector-curvature="0"
             id="path5423-4-7-6-0-7-8-5"
             d="m 149.85248,232.5498 c 0,0 6.34968,1.47307 7.83518,-0.68722 1.44387,-2.09974 -2.102,-7.35014 -2.102,-7.35014"
             style="fill:none;stroke:#ffffff;stroke-width:1.64166331;stroke-linecap:butt;stroke-linejoin:miter;stroke-miterlimit:4;stroke-dasharray:none;stroke-opacity:1" />
        </g>
        <g
           transform="matrix(1,0,0,-1,-26.939152,464.73762)"
           id="g5427-0-5-6-4-1-1-4-0"
           style="stroke:#ffffff;stroke-width:1.64166331;stroke-miterlimit:4;stroke-dasharray:none">
          <path
             inkscape:connector-curvature="0"
             id="path5397-3-4-3-4-9-4-6-1"
             d="m 151.50301,227.43365 10.69054,7.67995 z"
             style="fill:none;stroke:#ffffff;stroke-width:1.64166331;stroke-linecap:butt;stroke-linejoin:miter;stroke-miterlimit:4;stroke-dasharray:none;stroke-opacity:1" />
          <path
             sodipodi:nodetypes="cac"
             inkscape:connector-curvature="0"
             id="path5423-4-7-6-1-4-2-1-5"
             d="m 149.85248,232.5498 c 0,0 6.34968,1.47307 7.83518,-0.68722 1.44387,-2.09974 -2.102,-7.35014 -2.102,-7.35014"
             style="fill:none;stroke:#ffffff;stroke-width:1.64166331;stroke-linecap:butt;stroke-linejoin:miter;stroke-miterlimit:4;stroke-dasharray:none;stroke-opacity:1" />
        </g>
        <g
           transform="matrix(1,0,0,-1,-0.05618449,456.70651)"
           id="g5427-4-1-9-0-3"
           style="stroke:#ffffff;stroke-width:1.64166331;stroke-miterlimit:4;stroke-dasharray:none">
          <path
             inkscape:connector-curvature="0"
             id="path5397-9-0-5-4-9"
             d="m 137.2526,209.95208 0.0661,15.78226 z"
             style="fill:none;stroke:#ffffff;stroke-width:1.64166331;stroke-linecap:butt;stroke-linejoin:miter;stroke-miterlimit:4;stroke-dasharray:none;stroke-opacity:1"
             sodipodi:nodetypes="ccc" />
          <path
             sodipodi:nodetypes="cac"
             inkscape:connector-curvature="0"
             id="path5423-44-3-1-2-1"
             d="m 132.14283,211.62226 c 0,0 2.53849,6.0037 5.15938,5.93659 2.54743,-0.0652 4.71289,-6.01927 4.71289,-6.01927"
             style="fill:none;stroke:#ffffff;stroke-width:1.64166331;stroke-linecap:butt;stroke-linejoin:miter;stroke-miterlimit:4;stroke-dasharray:none;stroke-opacity:1" />
        </g>
        <path
           style="fill:#808080;stroke:#ffffff;stroke-width:0.82067877;stroke-linecap:butt;stroke-linejoin:miter;stroke-miterlimit:4;stroke-dasharray:none;stroke-opacity:1"
           d="M 131.63021,228.67135 H 127.7276 Z"
           id="path5602-19-20-2-2"
           inkscape:connector-curvature="0" />
        <path
           style="fill:#808080;stroke:#ffffff;stroke-width:0.82083166;stroke-linecap:butt;stroke-linejoin:miter;stroke-miterlimit:4;stroke-dasharray:none;stroke-opacity:1"
           d="m 146.5461,228.47291 h -3.90261 z"
           id="path5602-1-6-2-8-8"
           inkscape:connector-curvature="0" />
        <path
           style="fill:#808080;stroke:#ffffff;stroke-width:0.82083166;stroke-linecap:butt;stroke-linejoin:miter;stroke-miterlimit:4;stroke-dasharray:none;stroke-opacity:1"
           d="m 141.54846,220.28278 -2.10941,3.2834 z"
           id="path5602-2-2-5-0-3"
           inkscape:connector-curvature="0" />
        <path
           style="fill:#808080;stroke:#ffffff;stroke-width:0.82083166;stroke-linecap:butt;stroke-linejoin:miter;stroke-miterlimit:4;stroke-dasharray:none;stroke-opacity:1"
           d="m 132.62602,220.41507 2.10941,3.2834 z"
           id="path5602-2-3-0-8-5-7"
           inkscape:connector-curvature="0" />
        <path
           style="fill:#808080;stroke:#ffffff;stroke-width:0.82083166;stroke-linecap:butt;stroke-linejoin:miter;stroke-miterlimit:4;stroke-dasharray:none;stroke-opacity:1"
           d="m 134.64189,233.36028 -2.10941,3.2834 z"
           id="path5602-2-6-8-1-6-3"
           inkscape:connector-curvature="0" />
        <path
           style="fill:#808080;stroke:#ffffff;stroke-width:0.82083166;stroke-linecap:butt;stroke-linejoin:miter;stroke-miterlimit:4;stroke-dasharray:none;stroke-opacity:1"
           d="m 139.45039,233.45383 2.10941,3.2834 z"
           id="path5602-2-3-6-0-7-5-1"
           inkscape:connector-curvature="0" />
        <path
           style="fill:#afdde9;stroke:#ffffff;stroke-width:1.64166331;stroke-linecap:butt;stroke-linejoin:miter;stroke-miterlimit:4;stroke-dasharray:none;stroke-opacity:1"
           d="m 121.87456,220.22065 c 0.43009,0.99116 2.57671,0.90173 3.24099,0.0496 0.59336,-0.76115 0.18866,-2.56965 -0.74937,-2.79666 -1.20155,-0.29078 -2.98372,1.61299 -2.49162,2.74706 z"
           id="path5751-99-7-7-1"
           inkscape:connector-curvature="0"
           sodipodi:nodetypes="sass" />
        <path
           style="fill:#afdde9;stroke:#ffffff;stroke-width:1.64135754;stroke-linecap:butt;stroke-linejoin:miter;stroke-miterlimit:4;stroke-dasharray:none;stroke-opacity:1"
           d="m 152.31627,219.47458 c -0.43009,0.99116 -2.57671,0.90173 -3.24099,0.0496 -0.59336,-0.76115 -0.18866,-2.56965 0.74937,-2.79666 1.20155,-0.29078 2.98372,1.61299 2.49162,2.74706 z"
           id="path5751-9-59-7-4-4"
           inkscape:connector-curvature="0"
           sodipodi:nodetypes="sass" />
        <path
           style="fill:#afdde9;stroke:#ffffff;stroke-width:1.64166331;stroke-linecap:butt;stroke-linejoin:miter;stroke-miterlimit:4;stroke-dasharray:none;stroke-opacity:1"
           d="m 152.37921,237.06452 c -0.43009,-0.99116 -2.57671,-0.90173 -3.24099,-0.0496 -0.59336,0.76115 -0.18866,2.56965 0.74937,2.79666 1.20155,0.29078 2.98372,-1.61299 2.49162,-2.74706 z"
           id="path5751-9-5-1-8-0-3"
           inkscape:connector-curvature="0"
           sodipodi:nodetypes="sass" />
        <path
           style="fill:#afdde9;stroke:#ffffff;stroke-width:1.64166331;stroke-linecap:butt;stroke-linejoin:miter;stroke-miterlimit:4;stroke-dasharray:none;stroke-opacity:1"
           d="m 121.31251,237.23147 c 0.43009,-0.99116 2.57671,-0.90173 3.24099,-0.0496 0.59336,0.76115 0.18866,2.56965 -0.74937,2.79666 -1.20155,0.29078 -2.98372,-1.61299 -2.49162,-2.74706 z"
           id="path5751-9-5-0-5-6-2-0"
           inkscape:connector-curvature="0"
           sodipodi:nodetypes="sass" />
        <path
           style="fill:#afdde9;stroke:#ffffff;stroke-width:1.64166331;stroke-linecap:butt;stroke-linejoin:miter;stroke-miterlimit:4;stroke-dasharray:none;stroke-opacity:1"
           d="m 139.29924,248.9328 c 0.20825,-1.06563 -1.18026,-2.46161 -2.25275,-2.33058 -0.95794,0.11734 -1.95324,1.68033 -1.45187,2.50499 0.64225,1.05631 3.24874,0.97471 3.70462,-0.17439 z"
           id="path5751-9-5-3-6-2-0-3"
           inkscape:connector-curvature="0"
           sodipodi:nodetypes="cassc" />
        <path
           style="fill:#afdde9;stroke:#ffffff;stroke-width:1.64166331;stroke-linecap:butt;stroke-linejoin:miter;stroke-miterlimit:4;stroke-dasharray:none;stroke-opacity:1"
           d="m 139.16031,207.6252 c 0.30428,1.04228 -0.95156,2.55873 -2.03152,2.52575 -0.96464,-0.0298 -2.09793,-1.49577 -1.67362,-2.3626 0.54355,-1.11033 3.14666,-1.26606 3.70514,-0.16317 z"
           id="path5751-9-5-3-0-3-3-9-5"
           inkscape:connector-curvature="0"
           sodipodi:nodetypes="cassc" />
      </g>
    </g>
  </g>
</svg>
