<?xml version="1.0" encoding="UTF-8" standalone="no"?>
<!-- Created with Inkscape (http://www.inkscape.org/) -->

<svg
   xmlns:dc="http://purl.org/dc/elements/1.1/"
   xmlns:cc="http://creativecommons.org/ns#"
   xmlns:rdf="http://www.w3.org/1999/02/22-rdf-syntax-ns#"
   xmlns:svg="http://www.w3.org/2000/svg"
   xmlns="http://www.w3.org/2000/svg"
   xmlns:sodipodi="http://sodipodi.sourceforge.net/DTD/sodipodi-0.dtd"
   xmlns:inkscape="http://www.inkscape.org/namespaces/inkscape"
   width="100mm"
   height="100mm"
   viewBox="0 0 99.999996 100"
   version="1.1"
   id="svg1055"
   sodipodi:docname="rain_shower_violent.svg"
   inkscape:version="0.92.4 (5da689c313, 2019-01-14)">
  <defs
     id="defs1049" />
  <sodipodi:namedview
     id="base"
     pagecolor="#ffffff"
     bordercolor="#666666"
     borderopacity="1.0"
     inkscape:pageopacity="0.0"
     inkscape:pageshadow="2"
     inkscape:zoom="1.4"
     inkscape:cx="304.49787"
     inkscape:cy="131.08575"
     inkscape:document-units="mm"
     inkscape:current-layer="layer1"
     showgrid="false"
     units="mm"
     inkscape:window-width="1920"
     inkscape:window-height="1017"
     inkscape:window-x="-8"
     inkscape:window-y="-8"
     inkscape:window-maximized="1" />
  <metadata
     id="metadata1052">
    <rdf:RDF>
      <cc:Work
         rdf:about="">
        <dc:format>image/svg+xml</dc:format>
        <dc:type
           rdf:resource="http://purl.org/dc/dcmitype/StillImage" />
        <dc:title></dc:title>
      </cc:Work>
    </rdf:RDF>
  </metadata>
  <g
     inkscape:label="Layer 1"
     inkscape:groupmode="layer"
     id="layer1"
     transform="translate(0,-196.99997)">
    <g
       id="g17786"
       transform="translate(0.06340005,-0.73958718)">
      <g
         transform="matrix(1.1272509,0,0,1.1272509,-2.0605737,-27.370848)"
         id="g17747">
        <path
           style="fill:#37abc8;stroke:#216778;stroke-width:0.23229986px;stroke-linecap:butt;stroke-linejoin:miter;stroke-opacity:1"
           d="m 41.671292,245.7475 c -6.934061,8.72199 7.879192,10.61799 3.6e-5,0 z"
           id="path5188-8"
           inkscape:connector-curvature="0"
           sodipodi:nodetypes="ccc" />
        <path
           style="fill:#37abc8;stroke:#216778;stroke-width:0.23229986px;stroke-linecap:butt;stroke-linejoin:miter;stroke-opacity:1"
           d="m 25.4148,247.8257 c -7.246317,6.32801 6.244264,10.23548 3.5e-5,0 z"
           id="path5188"
           inkscape:connector-curvature="0"
           sodipodi:nodetypes="ccc" />
        <g
           id="g4733-8-5-2"
           transform="matrix(0.87798381,0,0,0.87798381,-1.0643085,174.30137)"
           style="fill:#b3b3b3;stroke:#808080">
          <g
             id="g4719-5-1-7"
             transform="rotate(6.163,41.881581,62.243323)"
             style="fill:#b3b3b3;stroke:#808080">
            <g
               id="g4706-3-6-9"
               style="fill:#b3b3b3;stroke:#808080">
              <g
                 id="g4694-8-9-1"
                 style="fill:#b3b3b3;stroke:#808080">
                <g
                   id="g4683-5-2-6"
                   style="fill:#b3b3b3;stroke:#808080">
                  <g
                     id="g4673-9-8-6"
                     style="fill:#b3b3b3;stroke:#808080">
                    <g
                       id="g4664-4-4-2"
                       style="fill:#b3b3b3;stroke:#808080">
                      <path
                         sodipodi:nodetypes="csscsscscccsc"
                         inkscape:connector-curvature="0"
                         id="path3833-4-4-9"
                         d="m 22.417314,54.34988 c 0,0 -3.677334,-1.605947 -8.689976,0.486507 -8.0435511,3.357662 -10.2348261,8.972566 -8.0953172,16.334168 3.9392107,13.553999 17.9271152,11.163908 26.1969032,3.88347 0,0 -0.971301,1.65776 0.67174,3.440928 3.685579,3.999902 9.720339,2.96091 12.837998,1.856125 5.360896,-1.899707 8.436688,-3.983533 11.349044,-4.304868 0,0 2.115732,1.013266 3.159483,1.382789 6.093729,2.157385 13.47169,-2.567666 14.806193,-6.374527 C 81.377538,64.422166 79.301798,51.781797 74.095764,48.84584 69.783075,47.058825 60.370067,47.939672 56.969501,51.597512 50.513364,38.805486 34.286338,42.736718 25.952844,48.93216 c -5.419443,4.029023 -3.53553,5.41772 -3.53553,5.41772 z"
                         style="fill:#b3b3b3;stroke:#808080;stroke-width:0.26458332px;stroke-linecap:butt;stroke-linejoin:miter;stroke-opacity:1" />
                      <path
                         sodipodi:nodetypes="ccscc"
                         inkscape:connector-curvature="0"
                         id="path4640-1-2-2"
                         d="m 31.828924,75.054025 c 0,0 6.12669,-4.595019 4.138873,-8.991602 -3.7858,-6.431903 -15.446314,-5.362182 -15.738835,1.496708 -0.199509,4.67799 6.480801,3.455626 6.290858,0.257249 -0.116932,-1.028988 -0.491109,-1.496711 -1.637027,-1.473324"
                         style="fill:#b3b3b3;stroke:#808080;stroke-width:0.26458332px;stroke-linecap:butt;stroke-linejoin:miter;stroke-opacity:1" />
                      <path
                         sodipodi:nodetypes="cccc"
                         inkscape:connector-curvature="0"
                         id="path4644-2-3-2"
                         d="m 56.687706,76.04621 c 10.503283,-3.389732 2.427065,-19.518583 -4.101769,-14.161577 -2.82647,2.831566 1.031636,7.101434 3.10791,4.305882 0.640823,-0.911116 0.648062,-2.199192 -0.263639,-2.420725"
                         style="fill:#b3b3b3;stroke:#808080;stroke-width:0.26458332px;stroke-linecap:butt;stroke-linejoin:miter;stroke-opacity:1" />
                      <path
                         sodipodi:nodetypes="cssc"
                         inkscape:connector-curvature="0"
                         id="path4646-1-0-8"
                         d="m 56.969501,51.597512 c 0,0 0.794126,4.525827 -2.479926,5.414496 -3.274052,0.888672 -5.472343,-0.420949 -6.361015,-1.824114 -0.888672,-1.403164 0,-2.619242 1.028988,-2.572469"
                         style="fill:#b3b3b3;stroke:#808080;stroke-width:0.26458332px;stroke-linecap:butt;stroke-linejoin:miter;stroke-opacity:1" />
                      <path
                         inkscape:connector-curvature="0"
                         id="path4648-3-4-3"
                         d="m 22.417314,54.34988 c 0,0 0.688136,1.071874 1.904213,0.557381"
                         style="fill:#b3b3b3;stroke:#808080;stroke-width:0.26458332px;stroke-linecap:butt;stroke-linejoin:miter;stroke-opacity:1" />
                      <path
                         inkscape:connector-curvature="0"
                         id="path4650-1-6-8"
                         d="m 74.65338,71.054472 c 0,0 -2.062978,1.672985 -3.653232,2.140707"
                         style="fill:#b3b3b3;stroke:#808080;stroke-width:0.26458332px;stroke-linecap:butt;stroke-linejoin:miter;stroke-opacity:1" />
                    </g>
                  </g>
                </g>
              </g>
            </g>
          </g>
        </g>
        <path
           style="fill:#37abc8;fill-opacity:1;stroke:#216778;stroke-width:0.4351818px;stroke-linecap:butt;stroke-linejoin:miter;stroke-opacity:1"
           d="m 11.635812,237.36171 c -13.8359158,15.34047 15.721792,18.67521 7.1e-5,0 z"
           id="path5188-8-2"
           inkscape:connector-curvature="0"
           sodipodi:nodetypes="ccc" />
        <path
           style="fill:#37abc8;fill-opacity:1;stroke:#216778;stroke-width:0.23229986px;stroke-linecap:butt;stroke-linejoin:miter;stroke-opacity:1"
           d="m 47.821188,251.63659 c 6.934058,8.72198 -7.879193,10.61799 -4e-5,0 z"
           id="path5188-8-1"
           inkscape:connector-curvature="0"
           sodipodi:nodetypes="ccc" />
        <path
           style="fill:#37abc8;stroke:#216778;stroke-width:0.37858728px;stroke-linecap:butt;stroke-linejoin:miter;stroke-opacity:1"
           d="m 56.517966,241.25463 c 11.809566,10.31297 -10.176498,16.68111 -6e-5,0 z"
           id="path5188-2-7"
           inkscape:connector-curvature="0"
           sodipodi:nodetypes="ccc" />
        <path
           style="fill:#37abc8;fill-opacity:1;stroke:#216778;stroke-width:0.23229986px;stroke-linecap:butt;stroke-linejoin:miter;stroke-opacity:1"
           d="m 31.646014,241.88775 c 7.246317,6.32801 -6.244265,10.23547 -3.5e-5,0 z"
           id="path5188-2"
           inkscape:connector-curvature="0"
           sodipodi:nodetypes="ccc" />
        <path
           style="fill:#37abc8;fill-opacity:1;stroke:#216778;stroke-width:0.23229986px;stroke-linecap:butt;stroke-linejoin:miter;stroke-opacity:1"
           d="m 82.282095,263.57868 c 7.246317,6.32801 -6.244265,10.23548 -3.4e-5,0 z"
           id="path5188-2-2"
           inkscape:connector-curvature="0"
           sodipodi:nodetypes="ccc" />
        <path
           style="fill:#37abc8;stroke:#216778;stroke-width:0.23229986px;stroke-linecap:butt;stroke-linejoin:miter;stroke-opacity:1"
           d="m 33.906759,253.52932 c -7.246317,6.32801 6.244264,10.23547 3.5e-5,0 z"
           id="path5188-3"
           inkscape:connector-curvature="0"
           sodipodi:nodetypes="ccc" />
        <path
           style="fill:#37abc8;fill-opacity:1;stroke:#216778;stroke-width:0.23229986px;stroke-linecap:butt;stroke-linejoin:miter;stroke-opacity:1"
           d="m 77.022259,268.59929 c 6.934056,8.72199 -7.879194,10.618 -4e-5,0 z"
           id="path5188-8-1-7"
           inkscape:connector-curvature="0"
           sodipodi:nodetypes="ccc" />
        <g
           id="g5084"
           transform="matrix(0.93001899,0,0,0.93001899,-38.564332,220.87927)"
           style="fill:#b3b3b3;stroke:#808080">
          <g
             id="g5070"
             style="fill:#b3b3b3;stroke:#808080">
            <g
               id="g5057"
               style="fill:#b3b3b3;stroke:#808080">
              <g
                 id="g5045"
                 style="fill:#b3b3b3;stroke:#808080">
                <g
                   id="g5034"
                   style="fill:#b3b3b3;stroke:#808080">
                  <g
                     id="g5024"
                     style="fill:#b3b3b3;stroke:#808080">
                    <g
                       id="g5015"
                       style="fill:#b3b3b3;stroke:#808080">
                      <g
                         id="g5007"
                         style="fill:#b3b3b3;stroke:#808080">
                        <g
                           id="g5000"
                           style="fill:#b3b3b3;stroke:#808080">
                          <path
                             sodipodi:nodetypes="ccccc"
                             inkscape:connector-curvature="0"
                             id="path4986"
                             d="m 116.32238,35.356495 c -10.14871,2.887086 -1.73511,15.337824 6.50133,8.231902 3.48371,2.530055 10.09415,1.82129 12.53494,-1.028988 7.77744,-9.153543 -7.92018,-12.939014 -11.83336,-12.113992 -3.60146,0.140317 -7.20291,4.911078 -7.20291,4.911078 z"
                             style="fill:#b3b3b3;stroke:#808080;stroke-width:0.26458332px;stroke-linecap:butt;stroke-linejoin:miter;stroke-opacity:1" />
                          <path
                             sodipodi:nodetypes="cssc"
                             inkscape:connector-curvature="0"
                             id="path4988"
                             d="m 122.82371,43.588397 c 0,0 -3.82018,-2.76887 0.0468,-6.454561 3.32406,-3.168222 8.31786,2.485222 6.10211,3.900574 -2.21574,1.415348 -2.57425,-0.795529 -2.57425,-0.795529"
                             style="fill:#b3b3b3;stroke:#808080;stroke-width:0.26458332px;stroke-linecap:butt;stroke-linejoin:miter;stroke-opacity:1" />
                          <path
                             inkscape:connector-curvature="0"
                             id="path4992"
                             d="M 116.32238,35.356495 Z"
                             style="fill:#b3b3b3;stroke:#808080;stroke-width:0.26458332px;stroke-linecap:butt;stroke-linejoin:miter;stroke-opacity:1" />
                          <path
                             sodipodi:nodetypes="cc"
                             inkscape:connector-curvature="0"
                             id="path4994"
                             d="m 116.32238,35.356495 c 1.11125,-0.166509 2.09694,-0.06442 2.81543,0.787445"
                             style="fill:#b3b3b3;stroke:#808080;stroke-width:0.26458332px;stroke-linecap:butt;stroke-linejoin:miter;stroke-opacity:1" />
                        </g>
                      </g>
                    </g>
                  </g>
                </g>
              </g>
            </g>
          </g>
        </g>
        <path
           style="fill:#37abc8;stroke:#216778;stroke-width:0.23229986px;stroke-linecap:butt;stroke-linejoin:miter;stroke-opacity:1"
           d="m 70.742246,260.77925 c -7.246317,6.32801 6.244264,10.23548 3.5e-5,0 z"
           id="path5188-4"
           inkscape:connector-curvature="0"
           sodipodi:nodetypes="ccc" />
      </g>
    </g>
    <path
       style="fill:none;stroke:#000000;stroke-width:0.26458332px;stroke-linecap:butt;stroke-linejoin:miter;stroke-opacity:1"
       d="m 32.730845,242.00641 c 0,0 3.696347,-7.01979 6.992559,-6.99256 3.336503,0.0276 6.960133,7.194 6.960133,7.194"
       id="path17788"
       inkscape:connector-curvature="0"
       sodipodi:nodetypes="cac" />
    <path
       style="fill:#c83737;stroke:#000000;stroke-width:0.33692169px;stroke-linecap:butt;stroke-linejoin:miter;stroke-opacity:1"
       d="m 62.358057,221.75713 -17.929049,4.21152 4.813169,2.88791 6.738433,-5.53515 z"
       id="path17790-1"
       inkscape:connector-curvature="0" />
    <path
       style="fill:#c83737;stroke:#000000;stroke-width:0.33692169px;stroke-linecap:butt;stroke-linejoin:miter;stroke-opacity:1"
       d="m 16.225745,221.63014 17.929049,4.21152 -4.813169,2.88791 -6.738433,-5.53515 z"
       id="path17790-1-3"
       inkscape:connector-curvature="0" />
    <path
       style="fill:none;stroke:#000000;stroke-width:0.09278874px;stroke-linecap:butt;stroke-linejoin:miter;stroke-opacity:1"
       d="m 84.820528,264.90832 c 0,0 1.296303,-2.46182 2.452274,-2.45227 1.170104,0.01 2.440903,2.52292 2.440903,2.52292"
       id="path17788-3"
       inkscape:connector-curvature="0"
       sodipodi:nodetypes="cac" />
    <path
       style="fill:#c83737;stroke:#000000;stroke-width:0.11815766px;stroke-linecap:butt;stroke-linejoin:miter;stroke-opacity:1"
       d="m 95.210722,257.80695 -6.287675,1.47697 1.687967,1.01278 2.363153,-1.94116 z"
       id="path17790-1-5"
       inkscape:connector-curvature="0" />
    <path
       style="fill:#c83737;stroke:#000000;stroke-width:0.11815766px;stroke-linecap:butt;stroke-linejoin:miter;stroke-opacity:1"
       d="m 79.032228,257.76241 6.287676,1.47697 -1.687968,1.01279 -2.363153,-1.94117 z"
       id="path17790-1-3-7"
       inkscape:connector-curvature="0" />
  </g>
</svg>
