<?xml version="1.0" encoding="UTF-8" standalone="no"?>
<!-- Created with Inkscape (http://www.inkscape.org/) -->

<svg
   xmlns:dc="http://purl.org/dc/elements/1.1/"
   xmlns:cc="http://creativecommons.org/ns#"
   xmlns:rdf="http://www.w3.org/1999/02/22-rdf-syntax-ns#"
   xmlns:svg="http://www.w3.org/2000/svg"
   xmlns="http://www.w3.org/2000/svg"
   xmlns:xlink="http://www.w3.org/1999/xlink"
   xmlns:sodipodi="http://sodipodi.sourceforge.net/DTD/sodipodi-0.dtd"
   xmlns:inkscape="http://www.inkscape.org/namespaces/inkscape"
   width="100mm"
   height="100mm"
   viewBox="0 0 99.999996 100"
   version="1.1"
   id="svg1055"
   inkscape:version="0.92.4 (5da689c313, 2019-01-14)"
   sodipodi:docname="rysunek.svg">
  <defs
     id="defs1049" />
  <sodipodi:namedview
     id="base"
     pagecolor="#ffffff"
     bordercolor="#666666"
     borderopacity="1.0"
     inkscape:pageopacity="0.0"
     inkscape:pageshadow="2"
     inkscape:zoom="1.4"
     inkscape:cx="-14.917057"
     inkscape:cy="215.76469"
     inkscape:document-units="mm"
     inkscape:current-layer="layer1"
     showgrid="false"
     units="mm"
     inkscape:window-width="1920"
     inkscape:window-height="1017"
     inkscape:window-x="-8"
     inkscape:window-y="-8"
     inkscape:window-maximized="1" />
  <metadata
     id="metadata1052">
    <rdf:RDF>
      <cc:Work
         rdf:about="">
        <dc:format>image/svg+xml</dc:format>
        <dc:type
           rdf:resource="http://purl.org/dc/dcmitype/StillImage" />
        <dc:title></dc:title>
      </cc:Work>
    </rdf:RDF>
  </metadata>
  <g
     inkscape:label="Layer 1"
     inkscape:groupmode="layer"
     id="layer1"
     transform="translate(0,-196.99997)">
    <g
       id="g201"
       transform="matrix(1.3500037,0,0,1.3500037,-23.53024,-4.7254729)">
      <ellipse
         ry="18.849182"
         rx="19.831398"
         cy="186.99187"
         cx="52.868599"
         id="path4652-7"
         style="fill:#ffe680;stroke:#806600;stroke-width:0.26458332" />
      <path
         style="fill:#ffe680;stroke:#806600;stroke-width:0.26458332px;stroke-linecap:butt;stroke-linejoin:miter;stroke-opacity:1"
         d="m 78.446458,190.88275 c 1.5405,1.19706 4.77076,2.15152 9.16734,-0.37418 4.39659,-2.5257 3.3676,-5.0514 3.3676,-5.0514 0,0 0.28063,1.12253 -2.33861,1.30962 -2.61924,0.18709 -3.08696,-0.84189 -3.08696,-0.84189 1.0085,-12.2854 -17.01274,-2.73771 -7.10937,4.95785 z"
         id="use5982"
         inkscape:connector-curvature="0"
         sodipodi:nodetypes="sscscs"
         inkscape:tile-x0="72.986955"
         inkscape:tile-y0="200.63771" />
      <path
         style="fill:#ffe680;stroke:#806600;stroke-width:0.26458332px;stroke-linecap:butt;stroke-linejoin:miter;stroke-opacity:1"
         d="m 22.107075,181.3924 c -1.806935,0.73558 -4.248651,3.05584 -4.259621,8.12624 -0.01097,5.07041 2.690841,5.44213 2.690841,5.44213 0,0 -1.112455,-0.31824 0.03514,-2.68011 1.147595,-2.36187 2.272578,-2.25244 2.272578,-2.25244 10.135218,7.01609 10.877296,-13.36461 -0.738939,-8.63582 z"
         id="use5986"
         inkscape:connector-curvature="0"
         sodipodi:nodetypes="sscscs"
         inkscape:tile-x0="72.986955"
         inkscape:tile-y0="200.63771" />
      <path
         style="fill:#ffe680;stroke:#806600;stroke-width:0.26458332px;stroke-linecap:butt;stroke-linejoin:miter;stroke-opacity:1"
         d="m 28.326401,172.84226 c -1.806934,-0.73558 -4.248651,-3.05584 -4.25962,-8.12624 -0.01097,-5.07041 2.69084,-5.44213 2.69084,-5.44213 0,0 -1.112454,0.31824 0.03514,2.68011 1.147595,2.36187 2.272578,2.25244 2.272578,2.25244 10.135219,-7.01609 10.877297,13.36461 -0.738939,8.63582 z"
         id="use5988"
         inkscape:connector-curvature="0"
         sodipodi:nodetypes="sscscs"
         inkscape:tile-x0="72.986955"
         inkscape:tile-y0="200.63771" />
      <path
         style="fill:#ffe680;stroke:#806600;stroke-width:0.26458332px;stroke-linecap:butt;stroke-linejoin:miter;stroke-opacity:1"
         d="m 58.730054,159.41147 c 0.266434,-1.93265 -0.522109,-5.20736 -4.90772,-7.75206 -4.385615,-2.54471 -6.05844,-0.39073 -6.05844,-0.39073 0,0 0.831824,-0.8043 2.303469,1.37048 1.471644,2.17479 0.814382,3.09434 0.814382,3.09434 -11.143719,5.26931 6.135443,16.10232 7.848309,3.67797 z"
         id="use5990"
         inkscape:connector-curvature="0"
         sodipodi:nodetypes="sscscs"
         inkscape:tile-x0="72.986955"
         inkscape:tile-y0="200.63771" />
      <path
         style="fill:#ffe680;stroke:#806600;stroke-width:0.26458332px;stroke-linecap:butt;stroke-linejoin:miter;stroke-opacity:1"
         d="m 70.114026,160.62498 c 1.5405,-1.19706 4.77076,-2.15152 9.16734,0.37418 4.39659,2.5257 3.3676,5.0514 3.3676,5.0514 0,0 0.28063,-1.12253 -2.33861,-1.30962 -2.61924,-0.18709 -3.08696,0.84189 -3.08696,0.84189 1.0085,12.2854 -17.01274,2.73771 -7.10937,-4.95785 z"
         id="use5992"
         inkscape:connector-curvature="0"
         sodipodi:nodetypes="sscscs"
         inkscape:tile-x0="72.986955"
         inkscape:tile-y0="200.63771" />
      <use
         style="fill:#ffe680;stroke:#806600"
         height="100%"
         width="100%"
         transform="matrix(1,0,0,-1,1.0583333,374.24848)"
         id="use6124"
         xlink:href="#use5988"
         y="0"
         x="0" />
      <use
         style="fill:#ffe680;stroke:#806600"
         height="100%"
         width="100%"
         transform="matrix(1,0,0,-1,1.8520833,372.92556)"
         id="use6126"
         xlink:href="#use5990"
         y="0"
         x="0" />
      <use
         style="fill:#ffe680;stroke:#806600"
         height="100%"
         width="100%"
         transform="matrix(1,0,0,-1,1.3229166,372.3964)"
         id="use6128"
         xlink:href="#use5992"
         y="0"
         x="0" />
      <text
         id="text6147"
         y="191.16667"
         x="52.974541"
         style="font-style:normal;font-weight:normal;font-size:10.58333302px;line-height:1.25;font-family:sans-serif;letter-spacing:0px;word-spacing:0px;fill:#000000;fill-opacity:1;stroke:none;stroke-width:0.26458332"
         xml:space="preserve"><tspan
           style="font-style:normal;font-variant:normal;font-weight:normal;font-stretch:normal;font-family:Papyrus;-inkscape-font-specification:Papyrus;text-align:center;text-anchor:middle;fill:#aa8800;stroke-width:0.26458332"
           y="191.16667"
           x="52.974541"
           id="tspan6145"
           sodipodi:role="line">UwU</tspan></text>
    </g>
  </g>
</svg>
