<?xml version="1.0" encoding="UTF-8" standalone="no"?>
<!-- Created with Inkscape (http://www.inkscape.org/) -->

<svg
   xmlns:dc="http://purl.org/dc/elements/1.1/"
   xmlns:cc="http://creativecommons.org/ns#"
   xmlns:rdf="http://www.w3.org/1999/02/22-rdf-syntax-ns#"
   xmlns:svg="http://www.w3.org/2000/svg"
   xmlns="http://www.w3.org/2000/svg"
   xmlns:sodipodi="http://sodipodi.sourceforge.net/DTD/sodipodi-0.dtd"
   xmlns:inkscape="http://www.inkscape.org/namespaces/inkscape"
   width="100mm"
   height="100mm"
   viewBox="0 0 99.999996 100"
   version="1.1"
   id="svg1055"
   sodipodi:docname="thunderstorm_heavy.svg"
   inkscape:version="0.92.4 (5da689c313, 2019-01-14)">
  <defs
     id="defs1049" />
  <sodipodi:namedview
     id="base"
     pagecolor="#ffffff"
     bordercolor="#666666"
     borderopacity="1.0"
     inkscape:pageopacity="0.0"
     inkscape:pageshadow="2"
     inkscape:zoom="2"
     inkscape:cx="92.07383"
     inkscape:cy="209.54014"
     inkscape:document-units="mm"
     inkscape:current-layer="layer1"
     showgrid="false"
     units="mm"
     inkscape:window-width="1920"
     inkscape:window-height="1017"
     inkscape:window-x="-8"
     inkscape:window-y="-8"
     inkscape:window-maximized="1" />
  <metadata
     id="metadata1052">
    <rdf:RDF>
      <cc:Work
         rdf:about="">
        <dc:format>image/svg+xml</dc:format>
        <dc:type
           rdf:resource="http://purl.org/dc/dcmitype/StillImage" />
        <dc:title></dc:title>
      </cc:Work>
    </rdf:RDF>
  </metadata>
  <g
     inkscape:label="Layer 1"
     inkscape:groupmode="layer"
     id="layer1"
     transform="translate(0,-196.99997)">
    <path
       style="fill:#ffeeaa;stroke:#d4aa00;stroke-width:0.26458332px;stroke-linecap:butt;stroke-linejoin:miter;stroke-opacity:1"
       d="m 20.210238,260.01856 c 0,0 7.192105,0.66362 8.285355,5.87993 1.09325,5.21631 -11.22532,18.70887 -11.22532,18.70887 l 18.575231,-19.77794 c 0,0 -6.484779,-2.26441 -6.815373,-5.07813 -0.3727,-3.17208 3.240819,-4.49757 6.1472,-7.34991 l -7.031701,-9.16822 c -4.14727,5.23312 -5.685698,10.59875 -7.935392,16.7854 z"
       id="path18419-6"
       inkscape:connector-curvature="0"
       sodipodi:nodetypes="czccaccc" />
    <path
       style="fill:#ffeeaa;stroke:#d4aa00;stroke-width:0.26458332px;stroke-linecap:butt;stroke-linejoin:miter;stroke-opacity:1"
       d="m 69.09729,261.34972 c 0,0 7.192105,0.66362 8.285355,5.87993 1.09325,5.21631 -11.22532,18.70887 -11.22532,18.70887 l 18.575231,-19.77794 c 0,0 -6.484779,-2.26441 -6.815373,-5.07813 -0.3727,-3.17208 3.240819,-4.49757 6.1472,-7.34991 l -7.031701,-9.16822 c -4.14727,5.23312 -5.685698,10.59875 -7.935392,16.7854 z"
       id="path18419"
       inkscape:connector-curvature="0"
       sodipodi:nodetypes="czccaccc" />
    <g
       id="g4733-8-5-2"
       transform="matrix(1.3129029,0,0,1.3129029,-4.8815694,155.37686)"
       style="fill:#b3b3b3;stroke:#808080">
      <g
         id="g4719-5-1-7"
         transform="rotate(6.163,41.881581,62.243323)"
         style="fill:#b3b3b3;stroke:#808080">
        <g
           id="g4706-3-6-9"
           style="fill:#b3b3b3;stroke:#808080">
          <g
             id="g4694-8-9-1"
             style="fill:#b3b3b3;stroke:#808080">
            <g
               id="g4683-5-2-6"
               style="fill:#b3b3b3;stroke:#808080">
              <g
                 id="g4673-9-8-6"
                 style="fill:#b3b3b3;stroke:#808080">
                <g
                   id="g4664-4-4-2"
                   style="fill:#b3b3b3;stroke:#808080">
                  <path
                     sodipodi:nodetypes="csscsscscccsc"
                     inkscape:connector-curvature="0"
                     id="path3833-4-4-9"
                     d="m 22.417314,54.34988 c 0,0 -3.677334,-1.605947 -8.689976,0.486507 -8.0435511,3.357662 -10.2348261,8.972566 -8.0953172,16.334168 3.9392107,13.553999 17.9271152,11.163908 26.1969032,3.88347 0,0 -0.971301,1.65776 0.67174,3.440928 3.685579,3.999902 9.720339,2.96091 12.837998,1.856125 5.360896,-1.899707 8.436688,-3.983533 11.349044,-4.304868 0,0 2.115732,1.013266 3.159483,1.382789 6.093729,2.157385 13.47169,-2.567666 14.806193,-6.374527 C 81.377538,64.422166 79.301798,51.781797 74.095764,48.84584 69.783075,47.058825 60.370067,47.939672 56.969501,51.597512 50.513364,38.805486 34.286338,42.736718 25.952844,48.93216 c -5.419443,4.029023 -3.53553,5.41772 -3.53553,5.41772 z"
                     style="fill:#b3b3b3;stroke:#808080;stroke-width:0.26458332px;stroke-linecap:butt;stroke-linejoin:miter;stroke-opacity:1" />
                  <path
                     sodipodi:nodetypes="ccscc"
                     inkscape:connector-curvature="0"
                     id="path4640-1-2-2"
                     d="m 31.828924,75.054025 c 0,0 6.12669,-4.595019 4.138873,-8.991602 -3.7858,-6.431903 -15.446314,-5.362182 -15.738835,1.496708 -0.199509,4.67799 6.480801,3.455626 6.290858,0.257249 -0.116932,-1.028988 -0.491109,-1.496711 -1.637027,-1.473324"
                     style="fill:#b3b3b3;stroke:#808080;stroke-width:0.26458332px;stroke-linecap:butt;stroke-linejoin:miter;stroke-opacity:1" />
                  <path
                     sodipodi:nodetypes="cccc"
                     inkscape:connector-curvature="0"
                     id="path4644-2-3-2"
                     d="m 56.687706,76.04621 c 10.503283,-3.389732 2.427065,-19.518583 -4.101769,-14.161577 -2.82647,2.831566 1.031636,7.101434 3.10791,4.305882 0.640823,-0.911116 0.648062,-2.199192 -0.263639,-2.420725"
                     style="fill:#b3b3b3;stroke:#808080;stroke-width:0.26458332px;stroke-linecap:butt;stroke-linejoin:miter;stroke-opacity:1" />
                  <path
                     sodipodi:nodetypes="cssc"
                     inkscape:connector-curvature="0"
                     id="path4646-1-0-8"
                     d="m 56.969501,51.597512 c 0,0 0.794126,4.525827 -2.479926,5.414496 -3.274052,0.888672 -5.472343,-0.420949 -6.361015,-1.824114 -0.888672,-1.403164 0,-2.619242 1.028988,-2.572469"
                     style="fill:#b3b3b3;stroke:#808080;stroke-width:0.26458332px;stroke-linecap:butt;stroke-linejoin:miter;stroke-opacity:1" />
                  <path
                     inkscape:connector-curvature="0"
                     id="path4648-3-4-3"
                     d="m 22.417314,54.34988 c 0,0 0.688136,1.071874 1.904213,0.557381"
                     style="fill:#b3b3b3;stroke:#808080;stroke-width:0.26458332px;stroke-linecap:butt;stroke-linejoin:miter;stroke-opacity:1" />
                  <path
                     inkscape:connector-curvature="0"
                     id="path4650-1-6-8"
                     d="m 74.65338,71.054472 c 0,0 -2.062978,1.672985 -3.653232,2.140707"
                     style="fill:#b3b3b3;stroke:#808080;stroke-width:0.26458332px;stroke-linecap:butt;stroke-linejoin:miter;stroke-opacity:1" />
                </g>
              </g>
            </g>
          </g>
        </g>
      </g>
    </g>
    <path
       style="fill:#ffeeaa;stroke:#d4aa00;stroke-width:0.26458332px;stroke-linecap:butt;stroke-linejoin:miter;stroke-opacity:1"
       d="m 44.863066,256.0097 c 0,0 7.192105,0.66362 8.285355,5.87993 1.09325,5.21631 -11.22532,18.70887 -11.22532,18.70887 l 18.575231,-19.77794 c 0,0 -6.484779,-2.26441 -6.815373,-5.07813 -0.3727,-3.17208 3.240819,-4.49757 6.1472,-7.34991 l -7.031701,-9.16822 c -4.14727,5.23312 -5.685698,10.59875 -7.935392,16.7854 z"
       id="path18419-1"
       inkscape:connector-curvature="0"
       sodipodi:nodetypes="czccaccc" />
  </g>
</svg>
